<svg xmlns="http://www.w3.org/2000/svg" viewBox="0 0 128 128" role="img" aria-label="Markdown Docs">
  <defs>
    <linearGradient id="paper" x1="25" y1="10" x2="103" y2="116" gradientUnits="userSpaceOnUse">
      <stop stop-color="#fff8ee"/>
      <stop offset="1" stop-color="#f1ddc8"/>
    </linearGradient>
    <linearGradient id="mark" x1="32" y1="26" x2="99" y2="103" gradientUnits="userSpaceOnUse">
      <stop stop-color="#f27a4b"/>
      <stop offset="1" stop-color="#98381f"/>
    </linearGradient>
  </defs>
  <rect width="128" height="128" rx="28" fill="#20252b"/>
  <path d="M34 14h42l25 25v72a7 7 0 0 1-7 7H34a7 7 0 0 1-7-7V21a7 7 0 0 1 7-7Z" fill="url(#paper)"/>
  <path d="M76 14v22a5 5 0 0 0 5 5h20L76 14Z" fill="#d7b99d"/>
  <path d="M39 83V45h12l13 19 13-19h12v38H77V63L66 79h-4L51 63v20H39Z" fill="#20252b"/>
  <path d="M39 92h50v8H39z" fill="url(#mark)"/>
  <path d="M92 76l12 12 12-12h-8V58h-8v18h-8Z" fill="url(#mark)"/>
</svg>
